<svg width="18" height="18" viewBox="0 0 18 18" fill="none" xmlns="http://www.w3.org/2000/svg">
<path fill-rule="evenodd" clip-rule="evenodd" d="M14.5027 12.2786C15.0168 12.2778 15.5147 12.0988 15.9115 11.772C16.3083 11.4453 16.5795 10.9909 16.6788 10.4866L17.7938 4.91357C17.8583 4.59059 17.8505 4.25729 17.7709 3.93768C17.6913 3.61808 17.5418 3.32012 17.3332 3.06519C17.1247 2.81025 16.8622 2.60469 16.5647 2.46332C16.2673 2.32194 15.9421 2.24826 15.6128 2.24756H4.51275V1.13257C4.51248 0.837717 4.39546 0.554964 4.18725 0.346191C3.97904 0.137419 3.6966 0.0196123 3.40175 0.0185547H1.18676C0.896952 0.0272366 0.621925 0.148444 0.420003 0.356506C0.218081 0.564568 0.105153 0.843122 0.105153 1.13306C0.105153 1.42299 0.218081 1.70155 0.420003 1.90961C0.621925 2.11767 0.896952 2.23888 1.18676 2.24756H2.30175V13.3926C1.86047 13.3906 1.42853 13.5196 1.06066 13.7634C0.692788 14.0071 0.405553 14.3545 0.23531 14.7616C0.0650683 15.1687 0.0194857 15.6172 0.10436 16.0502C0.189233 16.4833 0.400727 16.8814 0.712056 17.1942C1.02339 17.5069 1.42055 17.7201 1.8532 17.8069C2.28585 17.8938 2.73454 17.8502 3.14242 17.6818C3.55029 17.5134 3.89903 17.2277 4.1444 16.861C4.38977 16.4942 4.52074 16.0629 4.52074 15.6216H12.2868C12.2885 16.0603 12.4202 16.4886 12.6652 16.8525C12.9103 17.2164 13.2576 17.4995 13.6634 17.6661C14.0692 17.8328 14.5153 17.8755 14.9453 17.7888C15.3754 17.7021 15.7701 17.49 16.0797 17.1791C16.3892 16.8683 16.5998 16.4727 16.6847 16.0424C16.7697 15.612 16.7252 15.1661 16.5569 14.7609C16.3886 14.3558 16.1041 14.0096 15.7392 13.7661C15.3743 13.5225 14.9455 13.3926 14.5068 13.3926H4.51976V12.2786H14.5027ZM15.6178 4.47858L14.5027 10.0516H4.51574V4.47858H15.6157H15.6178Z" fill="#33A0FF"/>
</svg>
