<svg width="19" height="16" viewBox="0 0 19 16" fill="none" xmlns="http://www.w3.org/2000/svg">
<path fill-rule="evenodd" clip-rule="evenodd" d="M12.8846 2.36085C13.5285 2.36151 14.1584 2.548 14.6988 2.89796C15.2393 3.24792 15.6671 3.74646 15.9311 4.33369C16.1951 4.92091 16.284 5.57189 16.1871 6.20838C16.0901 6.84488 15.8115 7.43982 15.3846 7.92182C14.7716 8.61282 9.54467 13.5059 9.54467 13.5059C9.54467 13.5059 4.30665 8.61284 3.69365 7.91084C3.15246 7.30337 2.85474 6.51743 2.85766 5.70387C2.87282 4.82713 3.23173 3.99137 3.85711 3.37672C4.48248 2.76206 5.32429 2.41767 6.20116 2.41767C7.07803 2.41767 7.91978 2.76206 8.54516 3.37672C9.17053 3.99137 9.5295 4.82713 9.54467 5.70387C9.54467 5.26473 9.63113 4.82985 9.79918 4.42414C9.96724 4.01843 10.2136 3.64982 10.5241 3.3393C10.8346 3.02878 11.2032 2.78244 11.6089 2.61439C12.0147 2.44634 12.4495 2.35987 12.8887 2.35987L12.8846 2.36085ZM12.8887 0.130868C11.6824 0.128763 10.5083 0.520223 9.54467 1.24586C8.44071 0.426474 7.0728 0.0440494 5.70397 0.172128C4.33513 0.300206 3.06193 0.929749 2.12914 1.93971C1.19635 2.94966 0.669794 4.26876 0.650685 5.64344C0.631577 7.01812 1.12126 8.35136 2.02562 9.38685C2.65162 10.1048 6.77462 13.9649 8.02562 15.1309C8.43854 15.517 8.9828 15.7318 9.54815 15.7318C10.1135 15.7318 10.6577 15.517 11.0706 15.1309C12.3146 13.9659 16.4206 10.1159 17.0546 9.39887C17.7659 8.59534 18.2302 7.60351 18.3915 6.54255C18.5528 5.48159 18.4044 4.39662 17.964 3.41798C17.5236 2.43934 16.81 1.60863 15.909 1.0257C15.008 0.442776 13.9578 0.132393 12.8846 0.131844L12.8887 0.130868Z" fill="#33A0FF"/>
</svg>
